<?xml version="1.0" encoding="utf-8"?>
<!-- Generator: Adobe Illustrator 16.0.4, SVG Export Plug-In . SVG Version: 6.00 Build 0)  -->
<!DOCTYPE svg PUBLIC "-//W3C//DTD SVG 1.1//EN" "http://www.w3.org/Graphics/SVG/1.1/DTD/svg11.dtd">
<svg version="1.1" id="Layer_1" xmlns="http://www.w3.org/2000/svg" xmlns:xlink="http://www.w3.org/1999/xlink" x="0px" y="0px"
	 width="500px" height="140px" viewBox="2.5 0 500 140" enable-background="new 2.5 0 500 140" xml:space="preserve">
<g>
	<path fill="#6B93CE" d="M95.417,110.518c-0.583,0-1.161-0.254-1.558-0.742c-0.692-0.857-0.562-2.113,0.295-2.811l0,0
		c0.753-0.613,2.807-2.621,3.272-4.521c1.326-5.4,3.355-18.268,3.376-18.396c0.172-1.092,1.198-1.834,2.286-1.664
		c1.093,0.173,1.837,1.195,1.665,2.285c-0.084,0.535-2.074,13.164-3.441,18.729c-0.871,3.545-4.256,6.363-4.64,6.674
		C96.305,110.371,95.857,110.518,95.417,110.518z"/>
</g>
<path fill="#084CAE" d="M101.354,30.536c-0.543-0.039-1.069-0.059-1.578-0.059c-11.123,0-15.135,9.162-15.688,13.91l-8.874,53.192
	c-0.029,0.151-2.908,15.264,13.711,19.754l0.318,0.06c0.662,0.067,1.322,0.103,1.966,0.103c11.794,0,15.873-10.984,16.041-11.453
	l0.062-0.177l9.33-58.659l0.024-0.292C116.723,41.635,113.598,31.422,101.354,30.536z M103.423,104.842
	c-0.495,1.229-3.833,8.65-12.216,8.65c-0.456,0-0.926-0.021-1.398-0.064C77.04,109.883,79.041,98.84,79.145,98.307l3.883-23.277
	c3.059,2.369,8.312,5.393,15.259,5.393c2.832,0,5.946-0.508,9.303-1.762L103.423,104.842z M109.977,48.795
	c-1.268,1.642-3.621,1.945-5.266,0.682c-1.641-1.268-1.943-3.623-0.679-5.264c1.267-1.642,3.622-1.947,5.264-0.679
	C110.938,44.798,111.241,47.153,109.977,48.795z"/>
<path fill="#084CAE" d="M72.357,82.816l-0.029-0.188L52.672,26.583l-0.118-0.269c-2.456-4.671-10.058-12.173-21.253-7.138
	c-0.497,0.224-0.97,0.459-1.418,0.699c-9.786,5.284-8.965,15.253-7.195,19.694l17.46,51.021c0.046,0.148,4.691,14.814,21.448,10.867
	l0.309-0.098c0.615-0.254,1.213-0.539,1.778-0.846C74.061,94.912,72.432,83.307,72.357,82.816z M34.812,62.648l-8.373-24.461
	c-0.163-0.418-4.006-10.662,6.502-15.361c10.049-4.521,15.355,4.085,16.01,5.236l9.135,26.046
	C49.441,65.794,38.201,63.644,34.812,62.648z M64.968,91.389c-0.184,0.438-0.505,0.777-0.895,0.988
	c-0.513,0.277-1.143,0.328-1.723,0.086c-1.018-0.426-1.499-1.596-1.075-2.613c0.371-0.896,1.224-3.639,0.731-5.533
	c-1.399-5.383-5.726-17.667-5.768-17.792c-0.368-1.042,0.183-2.184,1.22-2.552c1.042-0.366,2.184,0.181,2.552,1.222
	c0.181,0.51,4.427,12.569,5.868,18.116C66.797,86.846,65.157,90.934,64.968,91.389z"/>
<path fill="#6B93CE" d="M44.465,26.841c2.045,0.334,3.432,2.262,3.098,4.307c-0.335,2.047-2.262,3.432-4.309,3.102
	c-2.047-0.337-3.432-2.266-3.099-4.311C40.49,27.893,42.419,26.505,44.465,26.841z"/>
<g>
	<circle fill="#084CAE" cx="181.644" cy="31.243" r="13.745"/>
</g>
<path fill="#084CAE" d="M199.781,49.171c-2.252,0-9.074,0-16.183,0v12.835l2.976,0.729v-2.976c0-1.934,1.762-3.688,4.977-1.527
	c4.529,3.053,9.406,20.394,4.117,19.711c-2.553-0.326-3.996-1.563-6.807-1.721c-2.283-0.119-2.283-1.102-2.287-2.393
	c-0.002-1.292,0-5.437,0-5.437v-2.312c-0.965-0.232-2.08-0.504-2.976-0.726v15.872c0,0,4.462-3.033,7.653-0.562
	c2.011,1.563,3.271,6.065-2.953,9.733c-1.437,0.873-9.253,2.941-11.708-1.662h-2.766c-1.248,0-2.262,1.021-2.262,2.268
	s1.014,2.264,2.262,2.264h16.388c2.588,0,4.697,2.108,4.697,4.7c0,2.593-2.109,4.697-4.697,4.697h-16.958
	c-0.578,0-1.051,0.476-1.051,1.06c0,0.582,0.473,1.053,1.051,1.053h16.958c2.588,0,4.697,2.109,4.697,4.701
	s-2.109,4.698-4.697,4.698H170.38c-1.004,0-1.822-0.813-1.822-1.823c0-1.004,0.818-1.821,1.822-1.821h19.833
	c0.578,0,1.053-0.472,1.053-1.052c0-0.582-0.475-1.058-1.053-1.058h-16.958c-2.588,0-4.697-2.106-4.697-4.696
	c0-2.594,2.109-4.705,4.697-4.705h16.958c0.578,0,1.053-0.472,1.053-1.051c0-0.582-0.475-1.058-1.053-1.058h-16.388
	c-3.256,0-5.904-2.649-5.904-5.908c0-3.258,2.648-5.909,5.904-5.909h3.656c0.023,0,0.043,0.012,0.068,0.012h1.244
	c1.211,0,1.164-1.28,1.16-1.28v-18.28c-1.029,0.286-2.207,0.612-2.973,0.824v2.021c0,0,0.002,4.146,0,5.437
	c0,1.291-0.01,2.272-2.287,2.392c-2.809,0.157-4.25,1.396-6.809,1.721c-5.287,0.684-0.406-16.657,4.113-19.71
	c3.213-2.162,4.982-0.407,4.982,1.527v3.235l2.973-0.821v-13c-6.877,0-13.338,0-15.471,0c-9.729,0-18.402,7.882-18.402,17.606
	c0,4.955,0,39.298,0,42.625s2.615,6.022,5.934,6.022c3.326,0,6.016-2.696,6.016-6.022c0-3.873,0-38.43,0-38.43h4.982v46.526h37.467
	V70.971h5.037c0,0,0,34.557,0,38.43c0,3.326,2.693,6.023,6.021,6.023s5.938-2.697,5.938-6.023c0-3.324,0-37.67,0-42.624
	C217.475,57.053,209.506,49.171,199.781,49.171z"/>
<g>
	<g id="Your_Icon_1_">
		<path fill="#084CAE" d="M320.372,40.312v64.286h-5.356l0.144-84.286h-32.144l-0.145,84.286h-5.355V49.243h-30.356v66.07h100v-75
			H320.372z M325.729,47.457h16.072V67.1h-16.072V47.457z M325.729,74.242h16.072v19.645h-16.072V74.242z M288.229,26.028h21.431
			v8.929h-21.431V26.028z M288.229,43.884h21.431v8.928h-21.431V43.884z M288.229,61.743h21.431v8.929h-21.431V61.743z
			 M288.229,79.599h21.431v8.93h-21.431V79.599z M252.516,56.384h7.144v12.5h-7.144V56.384z M265.016,56.384h7.144v12.5h-7.144
			V56.384z M252.516,77.812h7.144v12.5h-7.144V77.812z M265.016,77.812h7.144v12.5h-7.144V77.812z"/>
	</g>
	<rect x="252.516" y="56.384" fill="#6B93CE" width="7.144" height="12.5"/>
	<rect x="265.016" y="77.812" fill="#6B93CE" width="7.144" height="12.5"/>
	<rect x="288.229" y="26.028" fill="#6B93CE" width="21.431" height="8.929"/>
	<rect x="288.229" y="61.743" fill="#6B93CE" width="21.431" height="8.929"/>
	<rect x="325.729" y="74.242" fill="#6B93CE" width="16.072" height="19.645"/>
</g>
<path fill="#084CAE" d="M377.646,99.659v-0.07c0.074-0.042,0.127-0.118,0.127-0.21v-4.295c0-0.137-0.109-0.246-0.245-0.246h-2.377
	l-4.239-14.837h0.432c0.405,0,0.733-0.328,0.733-0.729v-0.188v-0.239c0-0.23-0.108-0.435-0.278-0.568
	c-0.125-0.101-0.279-0.162-0.455-0.162h-0.434c-2.586-11.487-3.438-42.579-3.516-45.588l1.211-1.402v-2.786l-2.021-1.97
	l-0.001-0.015v-7.265c0-0.339-0.379-0.615-0.846-0.615s-0.846,0.276-0.846,0.615v7.187l-0.01,0.091l-2.08,1.97v2.786l1.328,1.541
	c-0.097,3.713-0.961,34.12-3.511,45.451h-0.427c-0.174,0-0.33,0.062-0.455,0.16c-0.167,0.136-0.275,0.34-0.275,0.569v0.267v0.162
	c0,0.401,0.326,0.729,0.73,0.729h0.424l-4.238,14.837h-2.35c-0.136,0-0.244,0.109-0.244,0.246v4.295c0,0.079,0.04,0.146,0.097,0.189
	v0.091l-8.722,15.653h8.722c0,0,0.887-11.49,11.884-11.625c10.996,0.135,11.883,11.625,11.883,11.625h8.721L377.646,99.659z
	 M361.815,94.963l1.593-10.352h2.11h0.488h2.111l1.594,10.352H361.815z"/>
<g>
	<g id="Your_Icon_2_">
		<path fill="#084CAE" d="M383.659,40.312v75h100v-66.07h-30.356v55.356h-5.355l-0.145-84.286h-32.144l0.144,84.286h-5.356V40.312
			H383.659z M405.09,67.1h-16.072V47.457h16.072V67.1z M405.09,93.887h-16.072V74.242h16.072V93.887z M442.59,34.958h-21.431v-8.929
			h21.431V34.958z M442.59,52.812h-21.431v-8.928h21.431V52.812z M442.59,70.672h-21.431v-8.929h21.431V70.672z M442.59,88.528
			h-21.431v-8.93h21.431V88.528z M478.303,68.884h-7.144v-12.5h7.144V68.884z M465.803,68.884h-7.144v-12.5h7.144V68.884z
			 M478.303,90.312h-7.144v-12.5h7.144V90.312z M465.803,90.312h-7.144v-12.5h7.144V90.312z"/>
	</g>
	<rect x="471.159" y="56.384" fill="#6B93CE" width="7.144" height="12.5"/>
	<rect x="458.659" y="77.812" fill="#6B93CE" width="7.144" height="12.5"/>
	<rect x="421.159" y="26.028" fill="#6B93CE" width="21.431" height="8.929"/>
	<rect x="421.159" y="61.743" fill="#6B93CE" width="21.431" height="8.929"/>
	<rect x="389.018" y="74.242" fill="#6B93CE" width="16.072" height="19.645"/>
</g>
</svg>
