<?xml version="1.0" encoding="utf-8"?>
<!-- Generator: Adobe Illustrator 16.0.0, SVG Export Plug-In . SVG Version: 6.00 Build 0)  -->
<!DOCTYPE svg PUBLIC "-//W3C//DTD SVG 1.1//EN" "http://www.w3.org/Graphics/SVG/1.1/DTD/svg11.dtd">
<svg version="1.1" id="Layer_1" xmlns="http://www.w3.org/2000/svg" xmlns:xlink="http://www.w3.org/1999/xlink" x="0px" y="0px"
	 width="200px" height="308.5px" viewBox="0 0 200 308.5" enable-background="new 0 0 200 308.5" xml:space="preserve">
<g>
	<path d="M155.5,154.5C150.623,154.5,157.784,150.566,155.5,154.5l-21.041-6.7c-2.291-3.934-6.495-6.601-11.372-6.601
		c-4.878,0-9.082,2.667-11.372,6.601H91.552c-2.277-3.934-6.487-6.601-11.358-6.601s-9.082,2.667-11.372,6.601H57.093
		c-12.738,0-23.1-10.362-23.1-23.101c0-12.737,10.362-23.1,23.1-23.1h11.729c2.29,3.934,6.5,6.6,11.372,6.6s9.082-2.666,11.372-6.6
		h20.163c2.29,3.934,6.494,6.6,11.371,6.6c4.878,0,9.082-2.666,11.372-6.6h8.422c20.011,0,36.3-16.282,36.3-36.3
		S162.904,29,142.894,29h-8.429c-2.29-3.927-6.494-6.6-11.371-6.6c-4.878,0-9.082,2.673-11.372,6.6H91.559
		c-2.284-3.927-6.494-6.6-11.365-6.6s-9.082,2.673-11.372,6.6H45.365c-2.29-3.927-6.494-6.6-11.372-6.6
		c-7.293,0-13.2,5.907-13.2,13.2c0,7.293,5.907,13.2,13.2,13.2c4.878,0,9.082-2.673,11.372-6.6h23.463
		c2.284,3.927,6.494,6.6,11.365,6.6s9.082-2.673,11.372-6.6h20.163c2.29,3.927,6.494,6.6,11.371,6.6c4.878,0,9.082-2.673,11.372-6.6
		h8.422c12.737,0,23.1,10.362,23.1,23.1c0,12.738-10.362,23.101-23.1,23.101h-8.429c-2.29-3.928-6.494-6.601-11.371-6.601
		c-4.878,0-9.082,2.673-11.372,6.601H91.559c-2.284-3.928-6.494-6.601-11.365-6.601s-9.082,2.673-11.372,6.601H57.093
		c-20.018,0-36.3,16.289-36.3,36.299c0,20.012,16.282,36.301,36.3,36.301h11.729c2.29,3.934,6.5,6.6,11.372,6.6
		s9.082-2.666,11.372-6.6h20.163c2.29,3.934,6.494,6.6,11.371,6.6c4.878,0,9.082-2.666,11.372-6.6h20.163
		c2.283,3.934,6.488,6.6,11.372,6.6c7.286,0,3.995,6.676,3.995-0.617C155.295,174.082,162.786,154.5,155.5,154.5z M129.693,35.6
		c0,3.636-2.957,6.6-6.6,6.6c-3.637,0-6.601-2.964-6.601-6.6c0-3.637,2.964-6.6,6.601-6.6C126.736,29,129.693,31.963,129.693,35.6z
		 M86.793,35.6c0,3.636-2.957,6.6-6.6,6.6c-3.637,0-6.6-2.964-6.6-6.6c0-3.637,2.963-6.6,6.6-6.6
		C83.837,29,86.793,31.963,86.793,35.6z M73.594,95c0-3.637,2.963-6.6,6.6-6.6c3.644,0,6.6,2.963,6.6,6.6s-2.957,6.6-6.6,6.6
		C76.557,101.6,73.594,98.637,73.594,95z M116.493,95c0-3.637,2.964-6.6,6.601-6.6c3.643,0,6.6,2.963,6.6,6.6s-2.957,6.6-6.6,6.6
		C119.457,101.6,116.493,98.637,116.493,95z M129.693,154.4c0,3.637-2.957,6.6-6.6,6.6c-3.637,0-6.601-2.963-6.601-6.6
		s2.964-6.601,6.601-6.601C126.736,147.8,129.693,150.764,129.693,154.4z M86.793,154.4c0,3.637-2.957,6.6-6.6,6.6
		c-3.637,0-6.6-2.963-6.6-6.6s2.963-6.601,6.6-6.601C83.837,147.8,86.793,150.764,86.793,154.4z"/>
</g>
<g>
	<path d="M165.993,259.899c-4.877,0-9.088,2.667-11.372,6.601h-20.162c-2.291-3.934-6.495-6.601-11.372-6.601
		c-4.878,0-9.082,2.667-11.372,6.601H91.552c-2.277-3.934-6.487-6.601-11.358-6.601s-9.082,2.667-11.372,6.601H57.093
		c-12.738,0-23.1-10.362-23.1-23.101c0-12.737,10.362-23.1,23.1-23.1h11.729c2.29,3.934,6.5,6.6,11.372,6.6s9.082-2.666,11.372-6.6
		h20.163c2.29,3.934,6.494,6.6,11.371,6.6c4.878,0,9.082-2.666,11.372-6.6h8.422c20.011,0,36.3-16.282,36.3-36.3
		s-16.289-36.3-36.3-36.3h-8.429c-2.29-3.927-6.494-6.601-11.371-6.601c-4.878,0-9.082,2.674-11.372,6.601H91.559
		c-2.284-3.927-6.494-6.601-11.365-6.601s-9.082,2.674-11.372,6.601H45.365c-2.29-3.927-6.494-6.601-11.372-6.601
		c-7.293,0-2.533,10.31,4.507,8.4c17.707-4.801,2.707,6,10,6c4.878,0,2.588,3.927,4.878,0l15.45,5.4
		c2.284,3.927,6.494,6.6,11.365,6.6s9.082-2.673,11.372-6.6h20.163c2.29,3.927,6.494,6.6,11.371,6.6c4.878,0,9.082-2.673,11.372-6.6
		h8.422c12.737,0,23.1,10.361,23.1,23.1s-10.362,23.101-23.1,23.101h-8.429c-2.29-3.928-6.494-6.601-11.371-6.601
		c-4.878,0-9.082,2.673-11.372,6.601H91.559c-2.284-3.928-6.494-6.601-11.365-6.601s-9.082,2.673-11.372,6.601H57.093
		c-20.018,0-36.3,16.289-36.3,36.299c0,20.012,16.282,36.301,36.3,36.301h11.729c2.29,3.934,6.5,6.6,11.372,6.6
		s9.082-2.666,11.372-6.6h20.163c2.29,3.934,6.494,6.6,11.371,6.6c4.878,0,9.082-2.666,11.372-6.6h20.163
		c2.283,3.934,6.488,6.6,11.372,6.6c7.286,0,13.2-5.906,13.2-13.199C179.193,265.813,173.279,259.899,165.993,259.899z
		 M129.693,154.301c0,3.636-2.957,6.6-6.6,6.6c-3.637,0-6.601-2.964-6.601-6.6c0-3.637,2.964-6.601,6.601-6.601
		C126.736,147.7,129.693,150.664,129.693,154.301z M86.793,154.301c0,3.636-2.957,6.6-6.6,6.6c-3.637,0-6.6-2.964-6.6-6.6
		c0-3.637,2.963-6.601,6.6-6.601C83.837,147.7,86.793,150.664,86.793,154.301z M73.594,213.7c0-3.637,2.963-6.6,6.6-6.6
		c3.644,0,6.6,2.963,6.6,6.6s-2.957,6.6-6.6,6.6C76.557,220.3,73.594,217.337,73.594,213.7z M116.493,213.7
		c0-3.637,2.964-6.6,6.601-6.6c3.643,0,6.6,2.963,6.6,6.6s-2.957,6.6-6.6,6.6C119.457,220.3,116.493,217.337,116.493,213.7z
		 M129.693,273.101c0,3.637-2.957,6.6-6.6,6.6c-3.637,0-6.601-2.963-6.601-6.6s2.964-6.601,6.601-6.601
		C126.736,266.5,129.693,269.464,129.693,273.101z M86.793,273.101c0,3.637-2.957,6.6-6.6,6.6c-3.637,0-6.6-2.963-6.6-6.6
		s2.963-6.601,6.6-6.601C83.837,266.5,86.793,269.464,86.793,273.101z"/>
</g>
<g>
	<path fill="#93B5D1" d="M73.594,35.6c0-3.637,2.963-6.6,6.6-6.6c3.644,0,6.6,2.963,6.6,6.6"/>
	<path fill="#93B5D1" d="M86.793,35.6c0,3.637-2.963,6.6-6.6,6.6c-3.644,0-6.6-2.963-6.6-6.6"/>
</g>
<g>
	<path fill="#7DABD1" d="M116.594,35.6c0-3.637,2.963-6.6,6.6-6.6c3.644,0,6.6,2.963,6.6,6.6"/>
	<path fill="#7DABD1" d="M129.793,35.6c0,3.637-2.963,6.6-6.6,6.6c-3.644,0-6.6-2.963-6.6-6.6"/>
</g>
<g>
	<path fill="#529CCE" d="M73.594,95.101c0-3.637,2.963-6.6,6.6-6.6c3.644,0,6.6,2.963,6.6,6.6"/>
	<path fill="#529CCE" d="M86.793,95.101c0,3.637-2.963,6.6-6.6,6.6c-3.644,0-6.6-2.963-6.6-6.6"/>
</g>
<g>
	<path fill="#67A5CE" d="M116.594,95.101c0-3.637,2.963-6.6,6.6-6.6c3.644,0,6.6,2.963,6.6,6.6"/>
	<path fill="#67A5CE" d="M129.793,95.101c0,3.637-2.963,6.6-6.6,6.6c-3.644,0-6.6-2.963-6.6-6.6"/>
</g>
<g>
	<path fill="#4A94D1" d="M73.594,154.25c0-3.637,2.963-6.6,6.6-6.6c3.644,0,6.6,2.963,6.6,6.6"/>
	<path fill="#4A94D1" d="M86.793,154.25c0,3.637-2.963,6.6-6.6,6.6c-3.644,0-6.6-2.963-6.6-6.6"/>
</g>
<g>
	<path fill="#3F8FD1" d="M116.594,154.25c0-3.637,2.963-6.6,6.6-6.6c3.644,0,6.6,2.963,6.6,6.6"/>
	<path fill="#3F8FD1" d="M129.793,154.25c0,3.637-2.963,6.6-6.6,6.6c-3.644,0-6.6-2.963-6.6-6.6"/>
</g>
<g>
	<path fill="#2A86D1" d="M73.594,213.699c0-3.637,2.963-6.6,6.6-6.6c3.644,0,6.6,2.963,6.6,6.6"/>
	<path fill="#2A86D1" d="M86.793,213.699c0,3.637-2.963,6.6-6.6,6.6c-3.644,0-6.6-2.963-6.6-6.6"/>
</g>
<g>
	<path fill="#348BD1" d="M116.594,213.699c0-3.637,2.963-6.6,6.6-6.6c3.644,0,6.6,2.963,6.6,6.6"/>
	<path fill="#348BD1" d="M129.793,213.699c0,3.637-2.963,6.6-6.6,6.6c-3.644,0-6.6-2.963-6.6-6.6"/>
</g>
<g>
	<path fill="#207AD3" d="M73.594,273.1c0-3.637,2.963-6.6,6.6-6.6c3.644,0,6.6,2.963,6.6,6.6"/>
	<path fill="#207AD3" d="M86.793,273.1c0,3.637-2.963,6.6-6.6,6.6c-3.644,0-6.6-2.963-6.6-6.6"/>
</g>
<g>
	<path fill="#157DD1" d="M116.594,273.1c0-3.637,2.963-6.6,6.6-6.6c3.644,0,6.6,2.963,6.6,6.6"/>
	<path fill="#157DD1" d="M129.793,273.1c0,3.637-2.963,6.6-6.6,6.6c-3.644,0-6.6-2.963-6.6-6.6"/>
</g>
</svg>
